<?xml version="1.0" encoding="iso-8859-1"?>
<!-- Uploaded to: SVG Repo, www.svgrepo.com, Generator: SVG Repo Mixer Tools -->
<svg height="800px" width="800px" version="1.1" id="Capa_1" xmlns="http://www.w3.org/2000/svg" xmlns:xlink="http://www.w3.org/1999/xlink" 
	 viewBox="0 0 511.998 511.998" xml:space="preserve">
<path style="fill:#F79F1A;" d="M503.916,397.661c0,16.188-13.122,29.311-29.309,29.311H37.393
	c-16.188,0-29.309-13.124-29.309-29.311V114.336c0-16.188,13.122-29.31,29.309-29.31h437.212c16.188,0,29.309,13.123,29.309,29.31
	v283.326L503.916,397.661L503.916,397.661z"/>
<g style="opacity:0.15;">
	<path style="fill:#202121;" d="M28.922,397.661V114.336c0-16.188,13.124-29.31,29.311-29.31h-20.84
		c-16.187,0-29.309,13.123-29.309,29.31v283.326c0,16.188,13.122,29.311,29.309,29.311h20.84
		C42.047,426.973,28.922,413.849,28.922,397.661z"/>
</g>
<path style="fill:#202121;" d="M474.607,435.057H37.393C16.775,435.057,0,418.282,0,397.661V114.336
	c0-20.62,16.775-37.394,37.393-37.394h437.212c20.619,0,37.393,16.775,37.393,37.394v31.459c0,4.466-3.62,8.084-8.084,8.084
	c-4.466,0-8.084-3.618-8.084-8.084v-31.459c0-11.704-9.522-21.226-21.225-21.226H37.393c-11.703,0-21.225,9.522-21.225,21.226
	v283.326c0,11.705,9.522,21.227,21.225,21.227h437.212c11.703,0,21.225-9.522,21.225-21.227V172.025
	c0-4.466,3.618-8.084,8.084-8.084c4.465,0,8.084,3.618,8.084,8.084v225.637C512,418.282,495.226,435.057,474.607,435.057z"/>
<g>
	<path style="fill:#E7E8E3;" d="M140.013,207.539c-12.872,0-21.454,9.225-23.601,22.741h45.268
		C161.036,217.839,152.241,207.539,140.013,207.539z"/>
	<path style="fill:#E7E8E3;" d="M389.606,325.227c0.608,0.039,1.243,0.061,1.911,0.061c0.771,0,1.54,0,2.273-0.036
		c2.96-0.38,6.931-1.722,10.013-5.815c0.733-1.076,1.467-2.342,2.201-3.808c0.225-0.514,0.44-0.952,0.649-1.356
		c1.163-2.51,2.326-5.503,3.489-8.994l26.905-77.953h6.896v-3.448h-23.457v3.448h13.107l-17.933,51.739l-21.385-51.739h11.035
		v-2.758h-31.734v2.758h5.52l29.665,71.057c0,0-6.531,23.818-14.46,23.442h-0.014c-0.517-0.026-1.042-0.158-1.569-0.404
		c-0.359-0.204-0.742-0.501-1.203-0.963c-1.378-1.381-2.067-3.448-3.449-7.592l-4.139-14.485h-3.448v23.453
		c0.93,0.932,2.161,1.715,3.715,2.305c-33.793-6.615-77.076-11.796-128.579-11.273c-30.017,0.24-58.774,1.906-85.644,4.988
		c29.998-12.22,51.152-41.652,51.152-76.041c0-4.946-0.462-9.782-1.301-14.488h2.677l25.525,72.438h7.592l15.176-44.152
		l14.487,44.152h7.587l26.214-72.438h3.449v-3.448h-21.387v3.448h12.417l-20.005,57.259l-19.318-57.259h13.799v-3.448h-36.56v3.448
		h8.967l7.587,23.457l-11.726,33.802l-20.008-57.259h9.658v-2.758H219.29c-7.925-37.055-40.842-64.846-80.263-64.846
		c-45.339,0-82.092,36.754-82.092,82.092c0,42.719,32.631,77.804,74.327,81.716c-34.105,6.182-64.04,15.041-88.125,26.591
		c0,0,53.121-17.937,212.476-17.937c85.541,0,115.204,1.381,212.472,17.246C468.915,349.431,441.072,335.842,389.606,325.227z
		 M79.941,241.436c0-34.111,27.246-58.57,60.071-58.57c39.904,0,59.855,30.036,58.139,67.794h-81.739
		c0.645,15.233,9.44,25.315,24.886,25.315c8.797,0,17.378-4.077,20.811-12.23h34.111c-6.651,25.746-30.465,36.901-55.351,36.901
		C104.613,300.65,79.941,278.767,79.941,241.436z"/>
	<path style="fill:#E7E8E3;" d="M352.885,255.613c-2.758,0.691-6.207,1.376-9.659,2.067c-3.447,0.691-6.207,1.381-9.655,2.072
		c-3.452,0.691-6.211,2.067-8.968,3.448c-2.763,1.381-4.829,3.448-6.211,6.211c-1.381,2.758-2.067,6.207-2.067,10.346
		c0,6.211,2.067,11.726,6.208,15.179c4.138,3.448,9.658,5.516,16.554,5.516c5.52,0,9.659-1.376,13.798-4.139
		c4.14-2.758,6.901-6.896,7.587-12.417h0.691v13.107h20.009v-3.448h-6.9v-51.821c0-14.88-10.044-20.059-19.212-21.509
		c-1.965-0.272-4.196-0.459-6.609-0.478c-6.689,0.051-12.705,1.763-15.927,2.882c-0.808,0.316-1.633,0.631-2.476,0.945l-0.004,0.002
		c-1.5,0.561-3.067,1.122-4.749,1.685v24.143v0.691h2.758c2.067-5.52,3.448-9.659,4.829-13.107c1.376-3.448,2.758-6.207,4.139-8.278
		c1.381-2.072,2.759-3.448,4.829-4.139c1.376-0.691,3.448-1.381,6.207-1.381c4.139,0,7.592,0.691,9.659,2.763
		c2.072,2.067,3.448,5.516,3.448,10.346v15.87C359.096,253.539,356.334,254.922,352.885,255.613z M361.163,268.029
		c0,8.278-1.376,15.175-4.829,20.005c-3.448,4.829-8.278,7.587-13.794,7.587c-4.139,0-6.901-1.376-8.968-3.448
		c-2.072-2.067-2.763-6.207-2.763-11.726s1.381-9.659,2.763-11.726c2.067-2.763,4.14-4.139,6.896-5.52
		c2.758-1.381,6.211-2.072,9.659-2.758c3.257-0.652,7.129-1.928,11.035-3.808v11.394H361.163z"/>
</g>
<g>
	<path style="fill:#202121;" d="M342.54,295.621c5.516,0,10.346-2.758,13.794-7.587c3.452-4.829,4.829-11.726,4.829-20.005v-11.396
		c-3.906,1.88-7.778,3.156-11.035,3.808c-3.448,0.687-6.901,1.376-9.659,2.758c-2.757,1.381-4.829,2.758-6.896,5.52
		c-1.381,2.067-2.763,6.207-2.763,11.726s0.691,9.659,2.763,11.726C335.639,294.243,338.401,295.621,342.54,295.621z"/>
	<path style="fill:#202121;" d="M79.941,241.436c0,37.33,24.672,59.213,60.929,59.213c24.886,0,48.7-11.156,55.351-36.901h-11.537
		H162.11c-3.433,8.152-12.014,12.23-20.811,12.23c-15.446,0-24.242-10.084-24.886-25.315h71.302h10.438
		c1.716-37.759-18.236-67.794-58.139-67.794C107.187,182.867,79.941,207.326,79.941,241.436z M140.013,207.539
		c12.229,0,21.024,10.298,21.668,22.741h-45.268C118.558,216.764,127.14,207.539,140.013,207.539z"/>
	<path style="fill:#202121;" d="M475.729,335.12c-0.497-0.28-1.074-0.58-1.763-0.921c-1.22-0.6-2.793-1.319-4.55-2.079
		c-3.192-1.381-8.579-3.585-16.123-6.252c-7.306-2.583-17.417-5.863-30.055-9.274c0.747-1.891,1.483-3.921,2.219-6.125
		l23.375-67.728c6.541-2.072,11.282-8.191,11.282-15.417v-3.448c0-8.929-7.239-16.168-16.168-16.168h-23.457
		c-3.007,0-5.823,0.821-8.235,2.252c-2.103-1.001-4.457-1.561-6.939-1.561H373.58c-0.829,0-1.637,0.082-2.433,0.203
		c-4.001-2.076-8.546-3.555-13.562-4.348c-0.105-0.017-0.208-0.032-0.313-0.047c-2.858-0.393-5.783-0.607-8.694-0.629
		c-0.043,0-0.085,0-0.127,0c-0.041,0-0.082,0-0.122,0c-8.647,0.066-16.253,2.09-21.109,3.777c-0.194,0.068-0.387,0.139-0.579,0.213
		c-0.366,0.143-0.749,0.286-1.123,0.428c-0.968-0.181-1.963-0.287-2.984-0.287h-21.387c-2.333,0-4.551,0.494-6.553,1.383
		c-2.004-0.889-4.221-1.383-6.554-1.383h-36.56c-1.652,0-3.248,0.248-4.749,0.708c-0.254-0.012-0.513-0.018-0.772-0.018h-14.524
		c-6.007-16.561-16.457-31.398-30.22-42.662c-17.478-14.306-39.562-22.184-62.183-22.184c-54.181,0-98.261,44.081-98.261,98.261
		c0,24.626,9.152,48.181,25.771,66.329c3.756,4.102,7.821,7.849,12.144,11.219c-15.676,4.713-29.891,10.117-42.535,16.18
		c-7.736,3.709-11.301,12.84-8.03,20.769c2.563,6.216,8.537,10.03,14.9,10.03c1.743,0,3.516-0.287,5.256-0.888
		c1.689-0.534,55.777-17.1,207.341-17.1c85.45,0,115.058,1.57,209.869,17.036c0.861,0.14,1.731,0.21,2.603,0.21
		c8.293,0,15.261-6.283,16.103-14.534C484.714,345.957,482.764,339.086,475.729,335.12z M324.604,263.2
		c2.758-1.381,5.516-2.758,8.968-3.448c3.448-0.691,6.208-1.381,9.655-2.072c3.452-0.691,6.901-1.376,9.659-2.067
		c3.448-0.691,6.211-2.072,8.278-3.448v-14.488v-1.382c0-4.829-1.376-8.278-3.448-10.346c-0.094-0.094-0.204-0.17-0.304-0.258
		c-1.305-1.161-3.086-1.849-5.202-2.201c-0.029-0.004-0.061-0.008-0.092-0.013c-0.392-0.064-0.794-0.116-1.208-0.157
		c-0.13-0.014-0.267-0.019-0.399-0.029c-0.324-0.027-0.649-0.055-0.985-0.07c-0.479-0.023-0.968-0.032-1.468-0.032
		c-2.758,0-4.829,0.691-6.207,1.381c-0.293,0.098-0.568,0.212-0.834,0.337c-0.071,0.033-0.138,0.071-0.207,0.108
		c-0.197,0.101-0.389,0.206-0.574,0.322c-0.067,0.042-0.132,0.086-0.196,0.129c-0.191,0.127-0.375,0.263-0.555,0.407
		c-0.046,0.038-0.093,0.074-0.139,0.113c-0.217,0.184-0.429,0.379-0.635,0.589c-0.591,0.605-1.14,1.313-1.688,2.134
		c-1.381,2.072-2.763,4.829-4.139,8.278c-0.475,1.188-0.954,2.465-1.457,3.845l0,0c-0.52,1.424-1.075,2.976-1.686,4.663
		c-0.171,0.476-0.349,0.966-0.531,1.466c-0.089,0.244-0.176,0.48-0.266,0.731c-0.285,0.774-0.577,1.567-0.889,2.403h-0.014h-2.744
		v-0.691v-24.146c1.683-0.562,3.249-1.123,4.749-1.685l0.004-0.002c0.843-0.315,1.667-0.629,2.476-0.945
		c1.887-0.655,4.738-1.512,8.118-2.122c0.043-0.009,0.085-0.015,0.127-0.023c0.733-0.13,1.49-0.247,2.268-0.349
		c0.069-0.009,0.139-0.019,0.209-0.027c0.776-0.099,1.57-0.179,2.382-0.24c0.061-0.004,0.122-0.011,0.183-0.015
		c0.866-0.06,1.745-0.099,2.64-0.106c2.412,0.019,4.644,0.206,6.609,0.477c0.473,0.074,0.95,0.163,1.427,0.262
		c8.753,1.756,17.785,7.136,17.785,21.247v15.996v25.726v10.099h6.9v3.448h-16.789h-3.219v-13.107h-0.691
		c-0.687,5.52-3.447,9.659-7.587,12.417c-4.139,2.763-8.278,4.139-13.798,4.139c-6.896,0-12.417-2.067-16.554-5.516
		c-0.486-0.406-0.939-0.844-1.369-1.305c-0.143-0.154-0.272-0.322-0.409-0.483c-0.272-0.317-0.54-0.637-0.787-0.975
		c-0.151-0.207-0.288-0.424-0.429-0.638c-0.207-0.314-0.407-0.633-0.595-0.963c-0.137-0.243-0.266-0.489-0.392-0.739
		c-0.163-0.323-0.316-0.652-0.461-0.988c-0.116-0.271-0.231-0.541-0.336-0.819c-0.127-0.337-0.24-0.683-0.349-1.032
		c-0.093-0.291-0.189-0.577-0.268-0.876c-0.098-0.362-0.175-0.736-0.253-1.108c-0.064-0.295-0.138-0.584-0.19-0.886
		c-0.112-0.645-0.199-1.3-0.259-1.967l0,0c-0.07-0.786-0.111-1.586-0.111-2.398c0-4.139,0.687-7.587,2.067-10.346
		C319.774,266.648,321.841,264.581,324.604,263.2z M255.617,332.185c-159.355,0-212.476,17.937-212.476,17.937
		c24.086-11.55,54.021-20.409,88.125-26.591c-41.696-3.914-74.327-38.998-74.327-81.716c0-45.339,36.754-82.092,82.092-82.092
		c39.421,0,72.338,27.791,80.263,64.846h26.663v2.758H236.3l20.008,57.259l11.726-33.802l-7.587-23.457h-8.967v-3.448h36.56v3.448
		h-13.799l19.318,57.259l20.005-57.259h-4.438h-7.979v-3.448h8.041h13.345v3.448h-3.449l-9.585,26.482l-0.364,1.01l-0.001,0.001
		l-16.265,44.945h-7.587l-14.487-44.152l-15.176,44.152h-7.592l-25.525-72.438h-2.677c0.839,4.706,1.301,9.542,1.301,14.488
		c0,34.389-21.154,63.821-51.151,76.041c26.87-3.083,55.627-4.748,85.644-4.988c2.411-0.024,4.794-0.037,7.169-0.037
		c0.429,0,0.845,0.008,1.272,0.009c1.376,0.002,2.735,0.016,4.098,0.026c1.696,0.013,3.39,0.026,5.067,0.052
		c1.385,0.019,2.755,0.051,4.127,0.079c1.624,0.034,3.246,0.069,4.851,0.115c1.383,0.039,2.751,0.085,4.119,0.132
		c1.565,0.054,3.126,0.11,4.673,0.172c1.37,0.057,2.729,0.119,4.085,0.183c1.514,0.071,3.023,0.146,4.52,0.226
		c1.353,0.072,2.695,0.151,4.032,0.231c1.467,0.088,2.926,0.181,4.377,0.278c1.33,0.088,2.653,0.18,3.969,0.276
		c1.431,0.105,2.851,0.213,4.265,0.327c1.297,0.103,2.587,0.207,3.87,0.317c1.4,0.12,2.785,0.245,4.167,0.373
		c1.264,0.116,2.526,0.234,3.774,0.356c1.37,0.135,2.722,0.275,4.073,0.416c1.224,0.128,2.448,0.257,3.657,0.39
		c1.346,0.149,2.672,0.304,4,0.46c1.185,0.138,2.369,0.276,3.538,0.419c1.324,0.163,2.626,0.333,3.931,0.502
		c1.135,0.147,2.273,0.292,3.393,0.443c1.318,0.179,2.613,0.364,3.91,0.549c1.074,0.153,2.154,0.302,3.212,0.458
		c1.328,0.197,2.629,0.4,3.934,0.601c0.994,0.154,1.998,0.304,2.979,0.461c1.367,0.218,2.704,0.443,4.046,0.667
		c0.888,0.149,1.789,0.293,2.666,0.444c1.475,0.253,2.915,0.513,4.358,0.773c0.714,0.128,1.444,0.253,2.149,0.383
		c2.133,0.392,4.234,0.79,6.296,1.193c-1.554-0.59-2.785-1.371-3.716-2.305v-8.665V298.38h3.448l3.823,13.379l0,0l0.316,1.105
		c1.382,4.143,2.072,6.211,3.449,7.592c0.462,0.461,0.844,0.758,1.203,0.963c0.527,0.246,1.052,0.378,1.569,0.404h0.014
		c0.156,0.008,0.312-0.011,0.468-0.022c0.121-0.01,0.243-0.015,0.362-0.033c0.123-0.019,0.246-0.054,0.37-0.084
		c0.119-0.03,0.238-0.057,0.357-0.097c0.122-0.042,0.243-0.096,0.363-0.148c0.117-0.051,0.236-0.097,0.352-0.157
		c0.12-0.061,0.239-0.135,0.357-0.205c0.116-0.069,0.234-0.135,0.348-0.212c0.116-0.079,0.234-0.169,0.35-0.257
		c0.113-0.087,0.23-0.17,0.343-0.265c0.113-0.096,0.227-0.203,0.341-0.305c0.113-0.102,0.226-0.203,0.34-0.313
		c0.111-0.11,0.222-0.231,0.333-0.348c0.112-0.117,0.223-0.234,0.334-0.358c0.109-0.123,0.214-0.254,0.321-0.383
		c0.112-0.133,0.222-0.263,0.332-0.402c0.105-0.134,0.206-0.275,0.309-0.413c0.109-0.148,0.219-0.291,0.327-0.444
		c0.101-0.141,0.199-0.291,0.299-0.438c0.107-0.157,0.215-0.314,0.32-0.478c0.098-0.15,0.193-0.305,0.288-0.46
		c0.105-0.169,0.21-0.336,0.314-0.51c0.093-0.155,0.182-0.313,0.273-0.47c0.106-0.181,0.209-0.36,0.312-0.545
		c0.085-0.153,0.168-0.309,0.251-0.465c0.106-0.195,0.211-0.388,0.315-0.586c0.079-0.154,0.156-0.309,0.235-0.465
		c0.104-0.203,0.206-0.404,0.307-0.609c0.077-0.156,0.151-0.313,0.225-0.469c0.1-0.208,0.201-0.415,0.298-0.624
		c0.07-0.153,0.139-0.305,0.208-0.458c0.097-0.215,0.196-0.429,0.291-0.645c0.067-0.15,0.129-0.299,0.195-0.447
		c0.095-0.219,0.191-0.437,0.282-0.655c0.064-0.149,0.123-0.295,0.184-0.444c0.091-0.216,0.181-0.432,0.267-0.648
		c0.06-0.148,0.115-0.292,0.175-0.438c0.084-0.213,0.17-0.429,0.253-0.64c0.054-0.14,0.106-0.276,0.158-0.415
		c0.081-0.212,0.164-0.427,0.243-0.637c0.047-0.124,0.091-0.245,0.137-0.368c0.081-0.22,0.163-0.441,0.24-0.655
		c0.037-0.1,0.07-0.195,0.106-0.293c0.082-0.227,0.164-0.456,0.241-0.676c0.036-0.103,0.068-0.199,0.105-0.3
		c0.072-0.21,0.146-0.421,0.215-0.622c0.028-0.085,0.055-0.164,0.082-0.248c0.07-0.208,0.141-0.417,0.206-0.614
		c0.025-0.075,0.046-0.144,0.071-0.219c0.064-0.194,0.126-0.387,0.185-0.568c0.023-0.074,0.044-0.141,0.068-0.212
		c0.055-0.174,0.111-0.348,0.16-0.508c0.011-0.03,0.018-0.056,0.027-0.085c0.058-0.189,0.114-0.372,0.165-0.537
		c0.022-0.073,0.041-0.135,0.063-0.204c0.033-0.112,0.069-0.23,0.099-0.329c0.024-0.081,0.042-0.146,0.064-0.217
		s0.045-0.152,0.064-0.212c0.01-0.033,0.016-0.055,0.024-0.084c0.092-0.316,0.142-0.499,0.142-0.499l-18.324-43.893l0,0
		l-11.341-27.164h-5.52v-2.758h13.177h18.558v2.758h-11.035l21.385,51.739l17.933-51.739h-13.107v-3.448h23.457v3.448h-6.896
		l-26.905,77.953c-1.163,3.49-2.326,6.484-3.489,8.994c-0.209,0.404-0.424,0.842-0.649,1.356c-0.734,1.466-1.468,2.732-2.201,3.808
		c-3.082,4.093-7.053,5.435-10.013,5.815c-0.734,0.036-1.504,0.036-2.273,0.036c-0.668,0-1.303-0.023-1.911-0.061
		c51.466,10.617,79.309,24.204,78.485,24.204C370.822,333.566,341.159,332.185,255.617,332.185z M229.998,297.252
		c-3.393,0.121-6.77,0.261-10.126,0.42c0.087-0.126,0.175-0.253,0.262-0.382c2.296-3.348,4.371-6.817,6.219-10.383L229.998,297.252z
		"/>
</g>
</svg>